<?xml version="1.0" encoding="iso-8859-1"?>
<!-- Generator: Adobe Illustrator 19.0.0, SVG Export Plug-In . SVG Version: 6.00 Build 0)  -->
<svg xmlns="http://www.w3.org/2000/svg" xmlns:xlink="http://www.w3.org/1999/xlink" version="1.1" id="Capa_1" x="0px" y="0px" viewBox="0 0 512 512" style="enable-background:new 0 0 512 512;" xml:space="preserve" width="512px" height="512px">
<g>
	<g>
		<path d="M415.89,247.52c-2.879-4.202-71.53-102.92-159.886-102.92c-88.372,0-157.017,98.72-159.895,102.922    c-3.5,5.109-3.5,11.845,0,16.954c2.879,4.203,71.523,102.922,159.895,102.922c88.357,0,157.007-98.719,159.886-102.921    C419.391,259.365,419.391,252.629,415.89,247.52z M256.004,337.396c-59.046,0-111.152-59.027-128.786-81.412    c17.604-22.408,69.569-81.386,128.786-81.386c59.034,0,111.142,59.027,128.776,81.412    C367.177,278.418,315.208,337.396,256.004,337.396z" fill="#ffffff"/>
	</g>
</g>
<g>
	<g>
		<path d="M437.019,74.981C388.667,26.629,324.38,0,256,0c-68.381,0-132.669,26.629-181.021,74.98C26.628,123.332,0,187.619,0,256    c0,63.354,22.874,123.185,64.689,170.096L4.394,486.391c-5.858,5.858-5.858,15.355,0,21.213c2.93,2.93,6.767,4.395,10.606,4.395    s7.678-1.465,10.606-4.393l60.297-60.296c46.909,41.815,106.741,64.689,170.097,64.689c68.38,0,132.667-26.629,181.019-74.98    C485.371,388.666,512,324.379,512,256C512,187.62,485.371,123.333,437.019,74.981z M256,481.998    C131.384,481.998,30,380.615,30,256C30,131.383,131.384,30,256,30s226,101.383,226,226C482,380.615,380.616,481.998,256,481.998z" fill="#ffffff"/>
	</g>
</g>
<g>
	<g>
		<path d="M256,210.999c-24.814,0-45,20.186-45,44.999c0,24.814,20.186,45,45,45c24.813,0,45-20.186,45-45    C301,231.185,280.813,210.999,256,210.999z" fill="#ffffff"/>
	</g>
</g>
<g>
</g>
<g>
</g>
<g>
</g>
<g>
</g>
<g>
</g>
<g>
</g>
<g>
</g>
<g>
</g>
<g>
</g>
<g>
</g>
<g>
</g>
<g>
</g>
<g>
</g>
<g>
</g>
<g>
</g>
</svg>
